<?xml version="1.0" standalone="no"?><!DOCTYPE svg PUBLIC "-//W3C//DTD SVG 1.1//EN" "http://www.w3.org/Graphics/SVG/1.1/DTD/svg11.dtd"><svg t="1720514004565" class="icon" viewBox="0 0 1024 1024" version="1.1" xmlns="http://www.w3.org/2000/svg" p-id="1498" xmlns:xlink="http://www.w3.org/1999/xlink" width="200" height="200"><path d="M541.2352 122.2144C332.8 122.2144 163.072 291.84 163.072 500.3776c0 10.8032 0.512 21.6064 1.4848 32.3584l-43.2128-30.8736a34.9696 34.9696 0 0 0-40.6528 56.832l117.5552 84.1216a34.816 34.816 0 0 0 49.0496-8.5504l76.4928-110.6944a34.9696 34.9696 0 1 0-57.4976-39.7312l-31.8976 46.08a308.5824 308.5824 0 0 1 306.8416-337.8176c169.984 0.0512 308.224 138.3424 308.224 308.3264 0 169.984-138.24 308.224-308.224 308.224A306.0224 306.0224 0 0 1 321.5872 716.8a34.9184 34.9184 0 1 0-49.7664 49.1008 375.4496 375.4496 0 0 0 269.3632 112.7424c208.5376 0 378.1632-169.6768 378.1632-378.1632 0-208.5376-169.6256-378.2144-378.1632-378.2144z" fill="#888888" p-id="1499"></path><path d="M543.1808 285.696a35.84 35.84 0 0 0-35.84 35.84v192.1024a35.84 35.84 0 0 0 15.2576 29.3376l136.0896 95.4368a35.84 35.84 0 0 0 41.1648-58.6752L579.072 495.0016V321.536a35.84 35.84 0 0 0-35.8912-35.84z" fill="#888888" p-id="1500"></path></svg>